<svg width="25" height="23" viewBox="0 0 25 23" fill="none" xmlns="http://www.w3.org/2000/svg">
<path d="M16.4646 1.51691C16.5946 1.10217 16.3576 0.662505 15.9353 0.534892C15.513 0.40728 15.0653 0.640043 14.9354 1.05478L8.53539 21.483C8.40546 21.8977 8.64246 22.3374 9.06475 22.465C9.48704 22.5926 9.93471 22.3598 10.0646 21.9451L16.4646 1.51691Z" fill="#939393"/>
<path d="M7.46569 5.44445C7.77811 5.75129 7.77811 6.24877 7.46569 6.5556L2.43137 11.4999L7.46569 16.4442C7.77811 16.7511 7.77811 17.2486 7.46569 17.5554C7.15327 17.8622 6.64673 17.8622 6.33431 17.5554L0.734315 12.0555C0.421895 11.7487 0.421895 11.2512 0.734315 10.9443L6.33431 5.44445C6.64673 5.13762 7.15327 5.13762 7.46569 5.44445Z" fill="#939393"/>
<path d="M17.5343 5.44445C17.2219 5.75129 17.2219 6.24877 17.5343 6.5556L22.5686 11.4999L17.5343 16.4442C17.2219 16.7511 17.2219 17.2486 17.5343 17.5554C17.8467 17.8622 18.3533 17.8622 18.6657 17.5554L24.2657 12.0555C24.5781 11.7487 24.5781 11.2512 24.2657 10.9443L18.6657 5.44445C18.3533 5.13762 17.8467 5.13762 17.5343 5.44445Z" fill="#939393"/>
<path d="M16.4646 1.51691C16.5946 1.10217 16.3576 0.662505 15.9353 0.534892C15.513 0.40728 15.0653 0.640043 14.9354 1.05478L8.53539 21.483C8.40546 21.8977 8.64246 22.3374 9.06475 22.465C9.48704 22.5926 9.93471 22.3598 10.0646 21.9451L16.4646 1.51691Z" stroke="#939393" stroke-linecap="round" stroke-linejoin="round"/>
<path d="M7.46569 5.44445C7.77811 5.75129 7.77811 6.24877 7.46569 6.5556L2.43137 11.4999L7.46569 16.4442C7.77811 16.7511 7.77811 17.2486 7.46569 17.5554C7.15327 17.8622 6.64673 17.8622 6.33431 17.5554L0.734315 12.0555C0.421895 11.7487 0.421895 11.2512 0.734315 10.9443L6.33431 5.44445C6.64673 5.13762 7.15327 5.13762 7.46569 5.44445Z" stroke="#939393" stroke-linecap="round" stroke-linejoin="round"/>
<path d="M17.5343 5.44445C17.2219 5.75129 17.2219 6.24877 17.5343 6.5556L22.5686 11.4999L17.5343 16.4442C17.2219 16.7511 17.2219 17.2486 17.5343 17.5554C17.8467 17.8622 18.3533 17.8622 18.6657 17.5554L24.2657 12.0555C24.5781 11.7487 24.5781 11.2512 24.2657 10.9443L18.6657 5.44445C18.3533 5.13762 17.8467 5.13762 17.5343 5.44445Z" stroke="#939393" stroke-linecap="round" stroke-linejoin="round"/>
</svg>
